<svg width="100" height="102" viewBox="0 0 100 102" fill="none" xmlns="http://www.w3.org/2000/svg">
<rect width="100" height="100" fill="#C1EFE9"/>
<path d="M29.7665 45.328C28.2732 45.328 27.0358 44.88 26.0545 43.984C25.1158 43.088 24.6465 41.9573 24.6465 40.592C24.6465 39.2267 25.1158 38.1173 26.0545 37.264C27.0358 36.368 28.2732 35.92 29.7665 35.92C31.2598 35.92 32.4758 36.368 33.4145 37.264C34.3958 38.1173 34.8865 39.2267 34.8865 40.592C34.8865 41.9573 34.3958 43.088 33.4145 43.984C32.4758 44.88 31.2598 45.328 29.7665 45.328ZM19.2065 96.08V89.104H21.7025C23.1105 89.104 24.1132 88.8267 24.7105 88.272C25.3078 87.7173 25.6065 86.7787 25.6065 85.456V50.256H33.7985V85.456C33.7985 89.296 32.8172 92.0267 30.8545 93.648C28.9345 95.2693 26.3105 96.08 22.9825 96.08H19.2065ZM56.9395 82.768C53.9528 82.768 51.2862 82.0427 48.9395 80.592C46.5928 79.1413 44.7368 77.1573 43.3715 74.64C42.0062 72.1227 41.3235 69.264 41.3235 66.064C41.3235 62.864 42.0062 60.0267 43.3715 57.552C44.7368 55.0347 46.5928 53.072 48.9395 51.664C51.2862 50.2133 53.9528 49.488 56.9395 49.488C59.3288 49.488 61.4195 49.936 63.2115 50.832C65.0035 51.728 66.4542 52.9867 67.5635 54.608V35.92H75.7555V82H68.4595L67.5635 77.456C66.5395 78.864 65.1742 80.1013 63.4675 81.168C61.8035 82.2347 59.6275 82.768 56.9395 82.768ZM58.6675 75.6C61.3128 75.6 63.4675 74.7253 65.1315 72.976C66.8382 71.184 67.6915 68.9013 67.6915 66.128C67.6915 63.3547 66.8382 61.0933 65.1315 59.344C63.4675 57.552 61.3128 56.656 58.6675 56.656C56.0648 56.656 53.9102 57.5307 52.2035 59.28C50.4968 61.0293 49.6435 63.2907 49.6435 66.064C49.6435 68.8373 50.4968 71.12 52.2035 72.912C53.9102 74.704 56.0648 75.6 58.6675 75.6Z" fill="black"/>
</svg>
